<mxfile host="app.diagrams.net" modified="2023-11-13T12:17:49.072Z" agent="Mozilla/5.0 (Windows NT 10.0; Win64; x64) AppleWebKit/537.36 (KHTML, like Gecko) Chrome/119.0.0.0 Safari/537.36" version="22.1.0" etag="ypzYsWDZ61HAc07t4JiT" type="github">
  <diagram name="Halaman-1" id="W0upwBLU8xBzTaWd1Dfu">
    <mxGraphModel>
      <root>
        <mxCell id="0" />
        <mxCell id="1" parent="0" />
      </root>
    </mxGraphModel>
  </diagram>
</mxfile>
